
<svg width="160" height="40" viewBox="0 0 160 40" fill="none" xmlns="http://www.w3.org/2000/svg">
  <path d="M30 20C30 25.5228 25.5228 30 20 30C14.4772 30 10 25.5228 10 20C10 14.4772 14.4772 10 20 10C25.5228 10 30 14.4772 30 20Z" fill="url(#paint0_linear)" />
  <path d="M25 20C25 22.7614 22.7614 25 20 25C17.2386 25 15 22.7614 15 20C15 17.2386 17.2386 15 20 15C22.7614 15 25 17.2386 25 20Z" fill="white" />
  <text x="45" y="25" font-family="Arial, sans-serif" font-size="20" font-weight="bold" fill="#D65E9A">Plushify</text>
  <defs>
    <linearGradient id="paint0_linear" x1="10" y1="10" x2="30" y2="30" gradientUnits="userSpaceOnUse">
      <stop stop-color="#D65E9A" />
      <stop offset="1" stop-color="#0C96EB" />
    </linearGradient>
  </defs>
</svg>
