
<svg width="160" height="40" viewBox="0 0 160 40" fill="none" xmlns="http://www.w3.org/2000/svg">
  <path d="M30 20C30 25.5228 25.5228 30 20 30C14.4772 30 10 25.5228 10 20C10 14.4772 14.4772 10 20 10C25.5228 10 30 14.4772 30 20Z" fill="url(#paint0_linear)" />
  <path d="M25 20C25 22.7614 22.7614 25 20 25C17.2386 25 15 22.7614 15 20C15 17.2386 17.2386 15 20 15C22.7614 15 25 17.2386 25 20Z" fill="white" />
  <path d="M47.584 28V12.4H54.784C56.288 12.4 57.552 12.672 58.576 13.216C59.6 13.76 60.368 14.512 60.88 15.472C61.392 16.416 61.648 17.504 61.648 18.736C61.648 19.968 61.392 21.056 60.88 22C60.368 22.944 59.6 23.688 58.576 24.232C57.552 24.776 56.288 25.048 54.784 25.048H50.608V28H47.584ZM50.608 22.36H54.544C55.568 22.36 56.36 22.096 56.92 21.568C57.48 21.024 57.76 20.256 57.76 19.264V18.208C57.76 17.216 57.48 16.456 56.92 15.928C56.36 15.384 55.568 15.112 54.544 15.112H50.608V22.36Z" fill="#D65E9A" />
  <path d="M64.7375 28V12.4H67.7615V28H64.7375Z" fill="#D65E9A" />
  <text x="80" y="25" font-family="Arial, sans-serif" font-size="20" font-weight="bold" fill="#D65E9A">Plushify</text>
  <defs>
    <linearGradient id="paint0_linear" x1="10" y1="10" x2="30" y2="30" gradientUnits="userSpaceOnUse">
      <stop stop-color="#D65E9A" />
      <stop offset="1" stop-color="#0C96EB" />
    </linearGradient>
  </defs>
</svg>
