
<svg width="160" height="40" viewBox="0 0 160 40" fill="none" xmlns="http://www.w3.org/2000/svg">
  <path d="M30 20C30 25.5228 25.5228 30 20 30C14.4772 30 10 25.5228 10 20C10 14.4772 14.4772 10 20 10C25.5228 10 30 14.4772 30 20Z" fill="url(#paint0_linear)" />
  <path d="M25 20C25 22.7614 22.7614 25 20 25C17.2386 25 15 22.7614 15 20C15 17.2386 17.2386 15 20 15C22.7614 15 25 17.2386 25 20Z" fill="white" />
  <path d="M47.584 28V12.4H54.784C56.288 12.4 57.552 12.672 58.576 13.216C59.6 13.76 60.368 14.512 60.88 15.472C61.392 16.416 61.648 17.504 61.648 18.736C61.648 19.968 61.392 21.056 60.88 22C60.368 22.944 59.6 23.688 58.576 24.232C57.552 24.776 56.288 25.048 54.784 25.048H50.608V28H47.584ZM50.608 22.36H54.544C55.568 22.36 56.36 22.096 56.92 21.568C57.48 21.024 57.76 20.256 57.76 19.264V18.208C57.76 17.216 57.48 16.456 56.92 15.928C56.36 15.384 55.568 15.112 54.544 15.112H50.608V22.36Z" fill="#D65E9A" />
  <path d="M64.7375 28V12.4H67.7615V28H64.7375Z" fill="#D65E9A" />
  <path d="M81.6922 12.4H84.7162V28H81.9642L74.8042 18.016V28H71.7802V12.4H74.5322L81.6922 22.384V12.4Z" fill="#D65E9A" />
  <path d="M96.7985 28.24C95.2785 28.24 93.9185 27.92 92.7185 27.28C91.5345 26.624 90.6065 25.728 89.9345 24.592C89.2785 23.456 88.9505 22.16 88.9505 20.704V19.696C88.9505 18.24 89.2785 16.944 89.9345 15.808C90.6065 14.672 91.5345 13.784 92.7185 13.144C93.9185 12.488 95.2785 12.16 96.7985 12.16C98.3345 12.16 99.6945 12.488 100.879 13.144C102.063 13.784 102.983 14.672 103.639 15.808C104.311 16.944 104.647 18.24 104.647 19.696V20.704C104.647 22.16 104.311 23.456 103.639 24.592C102.983 25.728 102.063 26.624 100.879 27.28C99.6945 27.92 98.3345 28.24 96.7985 28.24ZM96.7985 25.36C98.0625 25.36 99.0785 24.96 99.8465 24.16C100.615 23.36 100.999 22.272 100.999 20.896V19.504C100.999 18.128 100.615 17.04 99.8465 16.24C99.0785 15.44 98.0625 15.04 96.7985 15.04C95.5505 15.04 94.5345 15.44 93.7505 16.24C92.9825 17.04 92.5985 18.128 92.5985 19.504V20.896C92.5985 22.272 92.9825 23.36 93.7505 24.16C94.5345 24.96 95.5505 25.36 96.7985 25.36Z" fill="#D65E9A" />
  <path d="M117.291 28.24C115.771 28.24 114.411 27.92 113.211 27.28C112.027 26.624 111.099 25.728 110.427 24.592C109.771 23.456 109.443 22.16 109.443 20.704V19.696C109.443 18.24 109.771 16.944 110.427 15.808C111.099 14.672 112.027 13.784 113.211 13.144C114.411 12.488 115.771 12.16 117.291 12.16C118.827 12.16 120.187 12.488 121.371 13.144C122.555 13.784 123.475 14.672 124.131 15.808C124.803 16.944 125.139 18.24 125.139 19.696V20.704C125.139 22.16 124.803 23.456 124.131 24.592C123.475 25.728 122.555 26.624 121.371 27.28C120.187 27.92 118.827 28.24 117.291 28.24ZM117.291 25.36C118.555 25.36 119.571 24.96 120.339 24.16C121.107 23.36 121.491 22.272 121.491 20.896V19.504C121.491 18.128 121.107 17.04 120.339 16.24C119.571 15.44 118.555 15.04 117.291 15.04C116.043 15.04 115.027 15.44 114.243 16.24C113.475 17.04 113.091 18.128 113.091 19.504V20.896C113.091 22.272 113.475 23.36 114.243 24.16C115.027 24.96 116.043 25.36 117.291 25.36Z" fill="#D65E9A" />
  <path d="M128.274 28V12.4H131.298V25.288H139.538V28H128.274Z" fill="#D65E9A" />
  <path d="M142.661 28V12.4H145.685V19.48H152.269V12.4H155.293V28H152.269V22.192H145.685V28H142.661Z" fill="#D65E9A" />
  <path d="M158.458 28V25.744L164.89 15.112H158.29V12.4H169.026V14.656L162.594 25.288H169.362V28H158.458Z" fill="#D65E9A" />
  <defs>
    <linearGradient id="paint0_linear" x1="10" y1="10" x2="30" y2="30" gradientUnits="userSpaceOnUse">
      <stop stop-color="#D65E9A" />
      <stop offset="1" stop-color="#0C96EB" />
    </linearGradient>
  </defs>
</svg>
